# AST/ASF file generated using VICON BodyLanguage
# -----------------------------------------------
:version 1.10
:name VICON
:units
  mass 1.0
  length 0.45
  angle deg
:documentation
   .ast/.asf automatically generated from VICON data using
   VICON BodyBuilder and BodyLanguage model FoxedUp or BRILLIANT.MOD
:root
   order TX TY TZ RX RY RZ
   axis XYZ
   position 0 0 0  
   orientation 0 0 0 
:bonedata
  begin
     id 1 
     name lhipjoint
     direction 0.630305 -0.712092 0.309259 
     length 2.29033 
     axis 0 0 0  XYZ
  end
  begin
     id 2 
     name lfemur
     direction 0.34202 -0.939693 0  
     length 6.43538  
     axis 0 0 20  XYZ
    dof rx ry rz
    limits (-160.0 20.0)
           (-70.0 70.0)
           (-60.0 70.0)
  end
  begin
     id 3 
     name ltibia
     direction 0.34202 -0.939693 0   
     length 7.43097   
     axis 0 0 20   XYZ
    dof rx
    limits (-10.0 170.0)
  end
  begin
     id 4 
     name lfoot
     direction 0.0334653 -0.0919451 0.995202   
     length 1.78438   
     axis -90 7.62852e-016 20   XYZ
    dof rx rz
    limits (-45.0 90.0)
           (-70.0 20.0)
  end
  begin
     id 5 
     name ltoes
     direction 1.53535e-011 -4.21933e-011 1   
     length 0.90832   
     axis -90 7.62852e-016 20   XYZ
    dof rx
    limits (-90.0 20.0)
  end
  begin
     id 6 
     name rhipjoint
     direction -0.682059 -0.67077 0.291312   
     length 2.43143  
     axis 0 0 0  XYZ 
  end
  begin
     id 7 
     name rfemur
     direction -0.34202 -0.939693 0   
     length 6.63488   
     axis 0 0 -20   XYZ
    dof rx ry rz
    limits (-160.0 20.0)
           (-70.0 70.0)
           (-70.0 60.0)
  end
  begin
     id 8 
     name rtibia
     direction -0.34202 -0.939693 0   
     length 6.86532   
     axis 0 0 -20   XYZ
    dof rx
    limits (-10.0 170.0)
 end
 begin
     id 9 
     name rfoot
     direction -0.105199 -0.289033 0.951521   
     length 1.77126  
     axis -90 -7.62852e-016 -20   XYZ
    dof rx rz
    limits (-45.0 90.0)
           (-20.0 70.0)
  end
  begin
     id 10 
     name rtoes
     direction -1.53551e-011 -4.21978e-011 1   
     length 0.889273   
     axis -90 -7.62852e-016 -20   XYZ
    dof rx
    limits (-90.0 20.0)
  end
  begin
     id 11 
     name lowerback
     direction -0.0514305 0.998089 0.034245   
     length 2.02077   
     axis 0 0 0   XYZ
    dof rx ry rz
    limits (-20.0 45.0)
           (-30.0 30.0)
           (-30.0 30.0)
  end
  begin
     id 12 
     name upperback
     direction 0.0203189 0.999449 -0.0262315   
     length 2.01413   
     axis 0 0 0   XYZ
    dof rx ry rz
    limits (-20.0 45.0)
           (-30.0 30.0)
           (-30.0 30.0)
  end
  begin
     id 13 
     name thorax
     direction 0.0452736 0.998142 -0.0407729   
     length 2.02986   
     axis 0 0 0   XYZ
    dof rx ry rz
    limits (-20.0 45.0)
           (-30.0 30.0)
           (-30.0 30.0)
  end
  begin
     id 14 
     name lowerneck
     direction -0.0180464 0.999645 -0.0195774   
     length 1.59034   
     axis 0 0 0   XYZ
    dof rx ry rz
    limits (-20.0 45.0)
           (-30.0 30.0)
           (-30.0 30.0)
  end
  begin
     id 15 
     name upperneck
     direction 0.0732272 0.979935 -0.18538   
     length 1.57486   
     axis 0 0 0   XYZ
    dof rx ry rz
    limits (-20.0 45.0)
           (-30.0 30.0)
           (-30.0 30.0)
  end
  begin
     id 16
     name head
     direction 0.0252963 0.997909 -0.059472  
     length 1.60334  
     axis 0 0 0   XYZ
    dof rx ry rz
    limits (-20.0 45.0)
           (-30.0 30.0)
           (-30.0 30.0)
  end
  begin
     id 17 
     name lclavicle
     direction 0.943819 0.330449 0.00315172  
     length 3.50322  
     axis 0 0 0   XYZ
    dof ry rz
    limits (-20.0 10.0)
           (0.0 20.0)
  end
  begin
     id 18 
     name lhumerus
     direction 1 -4.48949e-011 2.22502e-028   
     length 4.63208   
     axis 180 -30 -90   XYZ
    dof rx ry rz
    limits (-60.0 90.0)
           (-90.0 90.0)
           (-90.0 90.0)
  end
  begin
     id 19
     name lradius
     direction 1 -4.48967e-011 -4.10197e-027   
     length 3.41924   
     axis 180 -30 -90   XYZ
    dof rx
    limits (-10.0 170.0)
  end
  begin
     id 20
     name lwrist
     direction 1 -4.48987e-011 -1.24264e-027   
     length 1.70962   
     axis 2.50585e-015 90 90   XYZ
    dof ry
    limits (-180.0 0.0)
 end
  begin
     id 21 
     name lhand
     direction 1 -4.48983e-011 -2.48528e-027   
     length 0.62537   
     axis 1.58582e-015 90 90   XYZ
    dof rx rz
    limits (-90.0 90.0)
           (-45.0 45.0)
  end
  begin
     id 22 
     name lfingers
     direction 1 -4.48896e-011 -4.97056e-027   
     length 0.50419   
     axis 3.17164e-015 90 90   XYZ
    dof rx
    limits (0.0 90.0)
  end
  begin
     id 23
     name lthumb
     direction 0.707107 -6.34803e-011 0.707107   
     length 0.723919   
     axis -90 45 2.85299e-015   XYZ
    dof rx rz
    limits (-45.0 45.0)
           (-45.0 45.0)
  end
  begin
     id 24 
     name rclavicle
     direction -0.964499 0.260664 -0.0423695   
     length 3.91997  
     axis 0 0 0   XYZ 
    dof ry rz
    limits (-10.0 20.0)
           (-20.0 0.0)
  end
  begin
     id 25 
     name rhumerus
     direction -1 -4.48957e-011 -1.98656e-027  
     length 4.4064   
     axis 180 30 90   XYZ
    dof rx ry rz
    limits (-90.0 60.0)
           (-90.0 90.0)
           (-90.0 90.0)
  end
  begin
     id 26 
     name rradius
     direction -1 -4.48968e-011 1.96972e-027   
     length 3.44675   
     axis 180 30 90   XYZ
    dof rx
    limits (-10.0 170.0)
  end
  begin
     id 27 
     name rwrist
     direction -1 -4.48974e-011 -1.24264e-027   
     length 1.72338   
     axis 2.50585e-015 -90 -90   XYZ
    dof ry
    limits (-180.0 0.0)
  end
  begin
     id 28
     name rhand
     direction -1 -4.48901e-011 -2.48528e-027   
     length 0.513674   
     axis 1.58582e-015 -90 -90   XYZ
    dof rx rz
    limits (-90.0 90.0)
           (-45.0 45.0)
  end
  begin
     id 29
     name rfingers
     direction -1 -4.48946e-011 -4.97056e-027   
     length 0.414137   
     axis 3.17164e-015 -90 -90   XYZ
    dof rx
    limits (0.0 90.0)
  end
  begin
     id 30
     name rthumb
     direction -0.707107 -6.34859e-011 0.707107   
     length 0.59462   
     axis -90 -45 -2.85299e-015   XYZ
    dof rx rz
    limits (-45.0 45.0)
           (-45.0 45.0)
  end
:hierarchy
  begin
    root lhipjoint rhipjoint lowerback
    lhipjoint lfemur
    lfemur ltibia
    ltibia lfoot
    lfoot ltoes
    rhipjoint rfemur
    rfemur rtibia
    rtibia rfoot
    rfoot rtoes
    lowerback upperback
    upperback thorax
    thorax lowerneck lclavicle rclavicle
    lowerneck upperneck
    upperneck head
    lclavicle lhumerus
    lhumerus lradius
    lradius lwrist
    lwrist lhand lthumb
    lhand lfingers
    rclavicle rhumerus
    rhumerus rradius
    rradius rwrist
    rwrist rhand rthumb
    rhand rfingers
  end

#!OML:ASF E:\inclinewalkrobotboard\Project 1\Capture day 1\Session 1\subject1.ASF
:FULLY-SPECIFIED
:DEGREES
48
root 11.4315 15.744 0.438775 -21.9681 -35.6218 1.57835
lowerback 21.0512 1.1587 -2.77937
upperback 14.8676 0.538582 1.88664
thorax 4.46605 -0.266185 3.48858
lowerneck -6.8791 -0.889912 -4.0488
upperneck 0.20791 -0.863142 -0.487645
head 1.23618 -0.457369 0.502597
rclavicle 6.12257e-014 -5.96354e-014
rhumerus -21.6454 -6.86591 -88.3981
rradius 31.9913
rwrist -0.370743
rhand -14.5035 -24.1317
rfingers 7.12502
rthumb 11.6436 -53.7881
lclavicle 6.12257e-014 -5.96354e-014
lhumerus -14.2443 -6.21301 95.0937
lradius 24.5538
lwrist 1.07677
lhand -20.0801 -35.6938
lfingers 7.12502
lthumb 6.2625 -5.8064
rfemur -67.5219 -7.79855 21.2023
rtibia 122.629
rfoot -22.7355 1.76004
rtoes -22.7693
lfemur -70.8733 -1.71374 -28.0506
ltibia 126.419
lfoot -17.8738 2.1533
ltoes -63.1122
49
root 11.4315 15.742 0.437469 -21.9055 -35.6143 1.52946
lowerback 21.0404 1.15904 -2.73139
upperback 14.8578 0.547679 1.90418
thorax 4.4592 -0.258016 3.47879
lowerneck -6.86875 -0.910111 -4.05897
upperneck 0.190742 -0.890252 -0.480807
head 1.22952 -0.470541 0.505589
rclavicle 6.83819e-014 -8.78628e-014
rhumerus -21.5713 -7.00311 -88.3541
rradius 31.911
rwrist -0.537867
rhand -14.311 -24.1571
rfingers 7.12502
rthumb 11.8292 -53.803
lclavicle 6.83819e-014 -8.78628e-014
lhumerus -14.2296 -6.27725 95.1097
lradius 24.5291
lwrist 1.0603
lhand -20.2042 -35.7672
lfingers 7.12502
lthumb 6.14271 -5.87622
rfemur -67.5887 -7.7872 21.2607
rtibia 122.635
rfoot -22.7321 1.66114
rtoes -23.02
lfemur -70.9501 -1.70758 -28.0066
ltibia 126.444
lfoot -17.8434 2.25481
ltoes -63.4736
50
root 11.4319 15.7408 0.437056 -21.8821 -35.5834 1.49179
lowerback 21.0482 1.13658 -2.66938
upperback 14.8521 0.528709 1.89276
thorax 4.44994 -0.261679 3.43447
lowerneck -6.77964 -0.919113 -4.05917
upperneck 0.130352 -0.907968 -0.463531
head 1.19516 -0.477891 0.510483
rclavicle 4.11484e-014 -2.10712e-014
rhumerus -21.5349 -7.04786 -88.3923
rradius 31.7193
rwrist -0.244551
rhand -14.6639 -23.4388
rfingers 7.12502
rthumb 11.4889 -53.104
lclavicle 4.11484e-014 -2.10712e-014
lhumerus -14.2262 -6.32267 95.0879
lradius 24.5186
lwrist 1.09343
lhand -20.1681 -35.7106
lfingers 7.12502
lthumb 6.17758 -5.82071
rfemur -67.5986 -7.85127 21.2845
rtibia 122.638
rfoot -22.7137 1.69138
rtoes -23.2066
lfemur -70.9422 -1.73737 -28.0135
ltibia 126.453
lfoot -17.8084 2.45719
ltoes -63.8369
51
root 11.4324 15.7402 0.435886 -21.8381 -35.6071 1.44073
lowerback 21.035 1.12431 -2.63379
upperback 14.8522 0.518256 1.90408
thorax 4.45734 -0.265088 3.42827
lowerneck -6.71975 -0.914606 -4.12649
upperneck 0.0979664 -0.901454 -0.396747
head 1.17544 -0.472846 0.542985
rclavicle -8.74653e-015 7.95139e-015
rhumerus -21.5326 -6.95175 -88.4399
rradius 31.6201
rwrist 0.135047
rhand -15.2244 -22.3406
rfingers 7.12502
rthumb 10.9483 -52.0351
lclavicle -8.74653e-015 7.95139e-015
lhumerus -14.1875 -6.21863 95.0783
lradius 24.4768
lwrist 0.973135
lhand -20.226 -35.7359
lfingers 7.12502
lthumb 6.12165 -5.84437
rfemur -67.6109 -7.83007 21.3421
rtibia 122.628
rfoot -22.6211 1.7869
rtoes -22.8866
lfemur -70.9774 -1.70334 -27.964
ltibia 126.467
lfoot -17.7888 2.5185
ltoes -63.89
52
root 11.4323 15.7402 0.435263 -21.8273 -35.6337 1.43549
lowerback 21.0486 1.13117 -2.64948
upperback 14.8322 0.524867 1.9152
thorax 4.42722 -0.262502 3.44797
lowerneck -6.71785 -0.90452 -4.15784
upperneck 0.142811 -0.885296 -0.36693
head 1.18967 -0.464887 0.558205
rclavicle 3.3197e-014 -1.74931e-014
rhumerus -21.5393 -7.0577 -88.3942
rradius 31.6478
rwrist -0.0125454
rhand -14.9426 -22.2996
rfingers 7.12502
rthumb 11.2201 -51.9796
lclavicle 3.3197e-014 -1.74931e-014
lhumerus -14.1913 -6.12951 95.0849
lradius 24.4515
lwrist 0.885185
lhand -20.2072 -35.7174
lfingers 7.12502
lthumb 6.13975 -5.82639
rfemur -67.6259 -7.80306 21.3661
rtibia 122.623
rfoot -22.6265 1.76788
rtoes -23.0711
lfemur -70.9842 -1.69827 -27.9476
ltibia 126.472
lfoot -17.8136 2.57854
ltoes -63.8207
53
root 11.4321 15.7408 0.436208 -21.8497 -35.6772 1.45633
lowerback 21.067 1.14622 -2.65004
upperback 14.814 0.544462 1.90874
thorax 4.39559 -0.251188 3.43791
lowerneck -6.76158 -0.909866 -4.1175
upperneck 0.236598 -0.890806 -0.406432
head 1.2267 -0.469772 0.538948
rclavicle -1.78906e-014 2.50469e-014
rhumerus -21.5611 -7.13567 -88.3768
rradius 31.6549
rwrist -0.1383
rhand -14.7054 -23.2029
rfingers 7.12502
rthumb 11.4489 -52.8703
lclavicle -1.78906e-014 2.50469e-014
lhumerus -14.2462 -6.1637 95.0913
lradius 24.4736
lwrist 0.916462
lhand -20.164 -35.6634
lfingers 7.12502
lthumb 6.18146 -5.7736
rfemur -67.6303 -7.75804 21.3734
rtibia 122.62
rfoot -22.7128 1.64399
rtoes -23.496
lfemur -70.9451 -1.62402 -27.9618
ltibia 126.468
lfoot -17.8595 2.54833
ltoes -63.6766
54
root 11.4311 15.7404 0.436506 -21.8763 -35.7137 1.49801
lowerback 21.0287 1.18298 -2.68063
upperback 14.8319 0.587951 1.90902
thorax 4.4316 -0.232515 3.44835
lowerneck -6.83752 -0.933303 -4.04302
upperneck 0.337245 -0.920935 -0.473064
head 1.27153 -0.487622 0.504582
rclavicle 6.36111e-015 3.18055e-015
rhumerus -21.5225 -7.21375 -88.3492
rradius 31.7625
rwrist -0.605635
rhand -14.3091 -24.0107
rfingers 7.12502
rthumb 11.831 -53.6565
lclavicle 6.36111e-015 3.18055e-015
lhumerus -14.2197 -6.25482 95.1005
lradius 24.4873
lwrist 0.990128
lhand -20.1712 -35.6547
lfingers 7.12502
lthumb 6.17451 -5.76464
rfemur -67.6586 -7.70607 21.3606
rtibia 122.631
rfoot -22.6906 1.64216
rtoes -23.0945
lfemur -70.9538 -1.46672 -27.9808
ltibia 126.47
lfoot -17.8697 2.37779
ltoes -63.5725
